<svg xmlns="http://www.w3.org/2000/svg" version="1.1" xmlns:xlink="http://www.w3.org/1999/xlink" xmlns:svgjs="http://svgjs.dev/svgjs" width="1000" height="1000" viewBox="0 0 1000 1000"><rect width="1000" height="1000" fill="#ffffff"></rect><g transform="matrix(0.7,0,0,0.7,149.5757575968198,455.7187096262703)"><svg viewBox="0 0 396 50" data-background-color="#ffffff" preserveAspectRatio="xMidYMid meet" height="126" width="1000" xmlns="http://www.w3.org/2000/svg" xmlns:xlink="http://www.w3.org/1999/xlink"><defs></defs><g id="tight-bounds" transform="matrix(1,0,0,1,0.24000001191529918,0.10277232070842501)"><svg viewBox="0 0 395.52 49.79445535858313" height="49.79445535858313" width="395.52"><g><svg viewBox="0 0 463.89975747983397 58.40320531120331" height="49.79445535858313" width="395.52"><g transform="matrix(1,0,0,1,0,8.071644149377594)"><svg viewBox="0 0 395.52 42.25991701244812" height="42.25991701244812" width="395.52"><g><svg viewBox="0 0 395.52 42.25991701244812" height="42.25991701244812" width="395.52"><g><svg viewBox="0 0 395.52 42.25991701244812" height="42.25991701244812" width="395.52"><g transform="matrix(1,0,0,1,0,0)"><svg width="395.52" viewBox="0.6000000238418579 -35.5 337.3800048828125 36.04999923706055" height="42.25991701244812" data-palette-color="#3d3839"><path d="M0.6-1.65L1.75-5.3Q2.7-4.65 4.38-4.08 6.05-3.5 8.35-3.5L8.35-3.5Q10.7-3.5 12.2-4.28 13.7-5.05 14.5-6.63 15.3-8.2 15.6-10.65 15.9-13.1 15.9-16.45L15.9-16.45 15.9-35.5 20.4-35.5 20.4-17.45Q20.4-13.5 20-10.2 19.6-6.9 18.4-4.48 17.2-2.05 14.83-0.75 12.45 0.55 8.5 0.55L8.5 0.55Q6 0.55 4.1 0 2.2-0.55 0.6-1.65L0.6-1.65ZM33 0L28.5 0 28.5-35.5 33-35.5 33 0ZM76.7 0L72.2 0 72.2-27.1 60.5-6.25 57.75-6.25 46-27.1 46 0 41.5 0 41.5-35.5 46.25-35.5 59.1-12.45 72-35.5 76.7-35.5 76.7 0ZM120.39 0L115.89 0 115.89-27.1 104.19-6.25 101.44-6.25 89.69-27.1 89.69 0 85.19 0 85.19-35.5 89.94-35.5 102.79-12.45 115.69-35.5 120.39-35.5 120.39 0ZM125.29-35.5L130.24-35.5 140.99-17 151.84-35.5 156.74-35.5 143.24-12.95 143.24 0 138.74 0 138.74-13.05 125.29-35.5ZM157.89-35.5L162.64-35.5 174.39-5.65 186.09-35.5 190.84-35.5 176.44 0 172.34 0 157.89-35.5ZM210.29 0.25L210.29 0.25Q206.04 0.25 203.14-1.23 200.24-2.7 198.49-5.23 196.74-7.75 195.94-10.95 195.14-14.15 195.14-17.55L195.14-17.55 195.14-35.5 199.64-35.5 199.64-17.55Q199.64-14.95 200.16-12.48 200.69-10 201.89-8.05 203.09-6.1 205.14-4.95 207.19-3.8 210.24-3.8L210.24-3.8Q213.34-3.8 215.39-4.98 217.44-6.15 218.64-8.13 219.84-10.1 220.36-12.55 220.89-15 220.89-17.55L220.89-17.55 220.89-35.5 225.39-35.5 225.39-17.55Q225.39-13.95 224.56-10.73 223.74-7.5 221.94-5.05 220.14-2.6 217.26-1.18 214.39 0.25 210.29 0.25ZM235.28 0L231.58 0 231.58-5.6 235.28-5.6 235.28 0ZM255.03 0L242.73 0 242.73-35.5 255.03-35.5Q260.73-35.5 264.56-33.13 268.38-30.75 270.28-26.73 272.18-22.7 272.18-17.8L272.18-17.8Q272.18-12.4 270.08-8.4 267.98-4.4 264.13-2.2 260.28 0 255.03 0L255.03 0ZM267.63-17.8L267.63-17.8Q267.63-21.8 266.16-24.9 264.68-28 261.88-29.75 259.08-31.5 255.03-31.5L255.03-31.5 247.23-31.5 247.23-4 255.03-4Q259.13-4 261.93-5.83 264.73-7.65 266.18-10.78 267.63-13.9 267.63-17.8ZM283.03-4L302.63-4 302.63 0 278.53 0 278.53-35.5 302.18-35.5 302.18-31.5 283.03-31.5 283.03-20 299.68-20 299.68-16.25 283.03-16.25 283.03-4ZM305.03-35.5L309.78-35.5 321.53-5.65 333.23-35.5 337.98-35.5 323.58 0 319.48 0 305.03-35.5Z" opacity="1" transform="matrix(1,0,0,1,0,0)" fill="#000000" class="undefined-text-0" data-fill-palette-color="primary" id="text-0"></path></svg></g></svg></g></svg></g></svg></g><g transform="matrix(1,0,0,1,405.49655216863067,0)"><svg viewBox="0 0 58.40320531120331 58.40320531120331" height="58.40320531120331" width="58.40320531120331"><g data-palette-color="#ffc604"><rect width="15.963542785062238" height="58.40320531120331" fill="#000000" stroke="transparent" data-fill-palette-color="accent" x="0" fill-opacity="1"></rect><rect width="15.963542785062238" height="58.40320531120331" fill="#000000" stroke="transparent" data-fill-palette-color="accent" x="19.467735103734437" fill-opacity="0.75"></rect><rect width="15.963542785062238" height="58.40320531120331" fill="#000000" stroke="transparent" data-fill-palette-color="accent" x="38.935470207468875" fill-opacity="0.5"></rect></g></svg></g></svg></g></svg><rect width="395.52" height="49.79445535858313" fill="none" stroke="none" visibility="hidden"></rect></g></svg></g></svg>