<svg xmlns="http://www.w3.org/2000/svg" version="1.1" xmlns:xlink="http://www.w3.org/1999/xlink" xmlns:svgjs="http://svgjs.dev/svgjs" width="1000" height="1000" viewBox="0 0 1000 1000"><rect width="1000" height="1000" fill="#ffffff"></rect><g transform="matrix(0.7,0,0,0.7,149.57575766924646,425.88313373431225)"><svg viewBox="0 0 396 84" data-background-color="#ffffff" preserveAspectRatio="xMidYMid meet" height="212" width="1000" xmlns="http://www.w3.org/2000/svg" xmlns:xlink="http://www.w3.org/1999/xlink"><defs></defs><g id="tight-bounds" transform="matrix(1,0,0,1,0.2400000528880355,-0.047056830742775446)"><svg viewBox="0 0 395.52 84.0941133362983" height="84.0941133362983" width="395.52"><g><svg viewBox="0 0 395.52 84.0941133362983" height="84.0941133362983" width="395.52"><g><svg viewBox="0 0 395.52 84.0941133362983" height="84.0941133362983" width="395.52"><g><svg viewBox="0 0 395.52 84.0941133362983" height="84.0941133362983" width="395.52"><g><svg viewBox="0 0 395.52 51.6860123387549" height="51.6860123387549" width="395.52"><g transform="matrix(1,0,0,1,0,0)"><svg width="395.52" viewBox="0.40000009536743164 -37.900001525878906 356.6000061035156 43.60000228881836" height="51.6860123387549" data-palette-color="#2257bf"><svg></svg><g class="undefined-text-0" data-fill-palette-color="primary" id="text-0"><path d="M3.25 5.7c-1.1 0-2.05-0.083-2.85-0.25v0-4.3c0.667 0.133 1.467 0.2 2.4 0.2v0c0.833 0 1.457-0.14 1.87-0.42 0.42-0.287 0.723-0.807 0.91-1.56 0.18-0.747 0.27-1.853 0.27-3.32v0-33.95h4.85v34.25c0 2.533-0.217 4.46-0.65 5.78-0.433 1.313-1.167 2.237-2.2 2.77-1.033 0.533-2.567 0.8-4.6 0.8zM21.4 0v-37.9h4.85v37.9zM66.95-37.9h5.35v37.9h-4.85v-30.55l-11.6 16.15h-2.55l-11.5-16.15v30.55h-4.85v-37.9h5.3l12.35 17.3zM113-37.9h5.35v37.9h-4.85v-30.55l-11.6 16.15h-2.55l-11.5-16.15v30.55h-4.85v-37.9h5.3l12.35 17.3zM157.85-37.9l-13.95 23.25v14.65h-4.8v-14.65l-13.9-23.25h5l11.3 19.15 11.35-19.15zM189.9-37.9h5.05l-14.25 38.35h-5.4l-14.3-38.35h5.1l11.9 32.3zM216.25 0.85c-4.833 0-8.45-1.227-10.85-3.68-2.4-2.447-3.6-5.92-3.6-10.42v0-24.65h4.9v24.65c0 3.233 0.8 5.683 2.4 7.35 1.6 1.667 3.983 2.5 7.15 2.5v0c3.167 0 5.55-0.833 7.15-2.5 1.6-1.667 2.4-4.117 2.4-7.35v0-24.65h4.9v24.65c0 4.5-1.2 7.973-3.6 10.42-2.4 2.453-6.017 3.68-10.85 3.68zM240.35 0v-8.05h5.2v8.05zM268-37.9c6.233 0 10.943 1.607 14.13 4.82 3.18 3.22 4.77 7.947 4.77 14.18v0c0 6.267-1.583 10.983-4.75 14.15-3.167 3.167-7.883 4.75-14.15 4.75v0h-12.6v-37.9zM281.9-19.05c0-5-1.167-8.683-3.5-11.05-2.333-2.367-5.8-3.55-10.4-3.55v0h-7.75v29.4h7.75c4.633 0 8.11-1.183 10.43-3.55 2.313-2.367 3.47-6.117 3.47-11.25zM300.05-4.2h18.35v4.2h-23.2v-37.9h22.95v4.2h-18.1v12.55h15.6v4.2h-15.6zM351.95-37.9h5.05l-14.25 38.35h-5.4l-14.3-38.35h5.1l11.9 32.3z" data-fill-palette-color="primary" fill="#2257bf" opacity="1"></path></g></svg></g></svg></g><g transform="matrix(1,0,0,1,0,63.102314041144126)"><svg viewBox="0 0 232.209792 20.991799295154188" height="20.991799295154188" width="232.209792"><g transform="matrix(1,0,0,1,0,0)"><svg width="232.209792" viewBox="4.050000190734863 -38.70000076293945 544.739990234375 49.25" height="20.991799295154188" data-palette-color="#2257bf"><path d="M14.85-26.9Q16.15-26.9 17.1-26.6L17.1-26.6 16.35-22.25Q15.4-22.55 14.3-22.55L14.3-22.55Q12.1-22.55 10.73-20.8 9.35-19.05 8.55-15.45L8.55-15.45 8.55 0 4.05 0 4.05-26.3 7.95-26.3 8.3-21.1Q10.25-26.9 14.85-26.9L14.85-26.9ZM39.95-13.95Q39.95-12.9 39.85-11.6L39.85-11.6 24.55-11.6Q24.75-7 26.4-4.98 28.05-2.95 30.9-2.95L30.9-2.95Q32.7-2.95 34.12-3.5 35.55-4.05 37.1-5.3L37.1-5.3 39.1-2.65Q35.4 0.65 30.7 0.65L30.7 0.65Q25.55 0.65 22.72-2.93 19.9-6.5 19.9-12.95L19.9-12.95Q19.9-19.4 22.6-23.18 25.3-26.95 30.1-26.95L30.1-26.95Q34.85-26.95 37.4-23.58 39.95-20.2 39.95-13.95L39.95-13.95ZM35.6-14.75L35.6-15.3Q35.6-23.55 30.15-23.55L30.15-23.55Q27.65-23.55 26.2-21.48 24.75-19.4 24.55-14.75L24.55-14.75 35.6-14.75ZM62.6-6Q62.6-4.4 63.05-3.63 63.5-2.85 64.45-2.45L64.45-2.45 63.5 0.6Q61.55 0.3 60.45-0.6 59.34-1.5 58.9-3.35L58.9-3.35Q56.35 0.65 51.75 0.65L51.75 0.65Q48.25 0.65 46.2-1.53 44.15-3.7 44.15-7.35L44.15-7.35Q44.15-11.55 46.9-13.75 49.65-15.95 54.75-15.95L54.75-15.95 58.15-15.95 58.15-18.2Q58.15-20.95 57.02-22.18 55.9-23.4 53.35-23.4L53.35-23.4Q50.6-23.4 46.95-22L46.95-22 45.85-25.15Q50.25-26.95 54.05-26.95L54.05-26.95Q62.6-26.95 62.6-18.4L62.6-18.4 62.6-6ZM52.8-2.75Q56.3-2.75 58.15-6.85L58.15-6.85 58.15-13.05 55.25-13.05Q48.75-13.05 48.75-7.6L48.75-7.6Q48.75-5.25 49.8-4 50.85-2.75 52.8-2.75L52.8-2.75ZM84.89-37.45L89.39-36.95 89.39 0 85.39 0 85.09-3.45Q82.54 0.65 78.24 0.65L78.24 0.65Q73.94 0.65 71.57-3 69.19-6.65 69.19-13.05L69.19-13.05Q69.19-17.2 70.37-20.35 71.54-23.5 73.69-25.23 75.84-26.95 78.64-26.95L78.64-26.95Q82.39-26.95 84.89-23.8L84.89-23.8 84.89-37.45ZM79.29-2.9Q81.09-2.9 82.42-3.9 83.74-4.9 84.89-6.85L84.89-6.85 84.89-20.05Q82.64-23.4 79.64-23.4L79.64-23.4Q76.99-23.4 75.44-20.85 73.89-18.3 73.94-13.15L73.94-13.15Q73.94-7.9 75.34-5.4 76.74-2.9 79.29-2.9L79.29-2.9ZM115.34-26.3L107.39 0.1Q105.99 4.75 103.44 7.3 100.89 9.85 96.19 10.55L96.19 10.55 95.69 7.2Q98.04 6.7 99.44 5.85 100.84 5 101.69 3.65 102.54 2.3 103.34 0L103.34 0 101.69 0 93.89-26.3 98.54-26.3 104.64-3.15 110.74-26.3 115.34-26.3ZM140.14-33.9Q138.29-33.9 137.41-33 136.54-32.1 136.54-30.2L136.54-30.2 136.54-26.3 142.44-26.3 141.94-22.9 136.54-22.9 136.54 0 132.04 0 132.04-22.9 128.14-22.9 128.14-26.3 132.04-26.3 132.04-30.15Q132.04-33.45 134.06-35.45 136.09-37.45 139.69-37.45L139.69-37.45Q142.69-37.45 145.59-36L145.59-36 144.24-32.9Q142.19-33.9 140.14-33.9L140.14-33.9ZM155.98-26.95Q161.03-26.95 163.83-23.4 166.63-19.85 166.63-13.2L166.63-13.2Q166.63-6.8 163.78-3.08 160.93 0.65 155.93 0.65L155.93 0.65Q150.88 0.65 148.06-3 145.23-6.65 145.23-13.15L145.23-13.15Q145.23-19.7 148.08-23.33 150.93-26.95 155.98-26.95L155.98-26.95ZM155.98-23.35Q153.03-23.35 151.48-20.88 149.93-18.4 149.93-13.15L149.93-13.15Q149.93-2.9 155.93-2.9L155.93-2.9Q161.93-2.9 161.93-13.2L161.93-13.2Q161.93-18.45 160.43-20.9 158.93-23.35 155.98-23.35L155.98-23.35ZM183.93-26.9Q185.23-26.9 186.18-26.6L186.18-26.6 185.43-22.25Q184.48-22.55 183.38-22.55L183.38-22.55Q181.18-22.55 179.81-20.8 178.43-19.05 177.63-15.45L177.63-15.45 177.63 0 173.13 0 173.13-26.3 177.03-26.3 177.38-21.1Q179.33-26.9 183.93-26.9L183.93-26.9ZM220.18-26.3L212.23 0.1Q210.83 4.75 208.28 7.3 205.73 9.85 201.03 10.55L201.03 10.55 200.53 7.2Q202.88 6.7 204.28 5.85 205.68 5 206.53 3.65 207.38 2.3 208.18 0L208.18 0 206.53 0 198.73-26.3 203.38-26.3 209.48-3.15 215.58-26.3 220.18-26.3ZM233.77-26.95Q238.82-26.95 241.62-23.4 244.42-19.85 244.42-13.2L244.42-13.2Q244.42-6.8 241.57-3.08 238.72 0.65 233.72 0.65L233.72 0.65Q228.67 0.65 225.85-3 223.02-6.65 223.02-13.15L223.02-13.15Q223.02-19.7 225.87-23.33 228.72-26.95 233.77-26.95L233.77-26.95ZM233.77-23.35Q230.82-23.35 229.27-20.88 227.72-18.4 227.72-13.15L227.72-13.15Q227.72-2.9 233.72-2.9L233.72-2.9Q239.72-2.9 239.72-13.2L239.72-13.2Q239.72-18.45 238.22-20.9 236.72-23.35 233.77-23.35L233.77-23.35ZM268.97-26.3L268.97 0 265.07 0 264.82-3.95Q262.07 0.65 257.47 0.65L257.47 0.65Q254.32 0.65 252.52-1.4 250.72-3.45 250.72-6.95L250.72-6.95 250.72-26.3 255.22-26.3 255.22-7.35Q255.22-5.05 256.1-3.98 256.97-2.9 258.72-2.9L258.72-2.9Q262.07-2.9 264.47-7.3L264.47-7.3 264.47-26.3 268.97-26.3ZM287.87-26.9Q289.17-26.9 290.12-26.6L290.12-26.6 289.37-22.25Q288.42-22.55 287.32-22.55L287.32-22.55Q285.12-22.55 283.74-20.8 282.37-19.05 281.57-15.45L281.57-15.45 281.57 0 277.07 0 277.07-26.3 280.97-26.3 281.32-21.1Q283.27-26.9 287.87-26.9L287.87-26.9ZM318.01-26.95Q321.16-26.95 322.94-24.88 324.71-22.8 324.71-19.15L324.71-19.15 324.71 0 320.21 0 320.21-18.6Q320.21-21.15 319.36-22.28 318.51-23.4 316.76-23.4L316.76-23.4Q313.46-23.4 310.76-18.7L310.76-18.7 310.76 0 306.26 0 306.26-26.3 310.16-26.3 310.51-22.4Q313.56-26.95 318.01-26.95L318.01-26.95ZM351.06-13.95Q351.06-12.9 350.96-11.6L350.96-11.6 335.66-11.6Q335.86-7 337.51-4.98 339.16-2.95 342.01-2.95L342.01-2.95Q343.81-2.95 345.24-3.5 346.66-4.05 348.21-5.3L348.21-5.3 350.21-2.65Q346.51 0.65 341.81 0.65L341.81 0.65Q336.66 0.65 333.84-2.93 331.01-6.5 331.01-12.95L331.01-12.95Q331.01-19.4 333.71-23.18 336.41-26.95 341.21-26.95L341.21-26.95Q345.96-26.95 348.51-23.58 351.06-20.2 351.06-13.95L351.06-13.95ZM346.71-14.75L346.71-15.3Q346.71-23.55 341.26-23.55L341.26-23.55Q338.76-23.55 337.31-21.48 335.86-19.4 335.66-14.75L335.66-14.75 346.71-14.75ZM373.91-26.3L366.86-14.1 374.96 0 370.01 0 364.11-11.4 358.26 0 353.46 0 361.56-13.9 354.36-26.3 359.26-26.3 364.21-16.5 369.16-26.3 373.91-26.3ZM390.01-4.05L391.66-1.15Q389.16 0.65 386.11 0.65L386.11 0.65Q382.91 0.65 381.18-1.2 379.46-3.05 379.46-6.4L379.46-6.4 379.46-22.9 375.71-22.9 375.71-26.3 379.46-26.3 379.46-32.35 383.96-32.9 383.96-26.3 389.76-26.3 389.26-22.9 383.96-22.9 383.96-6.45Q383.96-3.05 386.81-3.05L386.81-3.05Q387.66-3.05 388.38-3.3 389.11-3.55 390.01-4.05L390.01-4.05ZM418.65-26.95Q422.95-26.95 425.13-23.4 427.3-19.85 427.3-13.25L427.3-13.25Q427.3-6.85 424.88-3.1 422.45 0.65 418.1 0.65L418.1 0.65Q414.2 0.65 411.8-2.5L411.8-2.5 411.8 10 407.3 10.55 407.3-26.3 411.25-26.3 411.5-22.75Q414.2-26.95 418.65-26.95L418.65-26.95ZM417.05-2.95Q422.6-2.95 422.6-13.2L422.6-13.2Q422.6-18.55 421.33-20.98 420.05-23.4 417.45-23.4L417.45-23.4Q415.7-23.4 414.35-22.35 413-21.3 411.8-19.5L411.8-19.5 411.8-6.2Q413.85-2.95 417.05-2.95L417.05-2.95ZM444.7-26.9Q446-26.9 446.95-26.6L446.95-26.6 446.2-22.25Q445.25-22.55 444.15-22.55L444.15-22.55Q441.95-22.55 440.57-20.8 439.2-19.05 438.4-15.45L438.4-15.45 438.4 0 433.9 0 433.9-26.3 437.8-26.3 438.15-21.1Q440.1-26.9 444.7-26.9L444.7-26.9ZM460.5-26.95Q465.55-26.95 468.35-23.4 471.15-19.85 471.15-13.2L471.15-13.2Q471.15-6.8 468.3-3.08 465.45 0.65 460.45 0.65L460.45 0.65Q455.4 0.65 452.57-3 449.75-6.65 449.75-13.15L449.75-13.15Q449.75-19.7 452.6-23.33 455.45-26.95 460.5-26.95L460.5-26.95ZM460.5-23.35Q457.55-23.35 456-20.88 454.45-18.4 454.45-13.15L454.45-13.15Q454.45-2.9 460.45-2.9L460.45-2.9Q466.45-2.9 466.45-13.2L466.45-13.2Q466.45-18.45 464.95-20.9 463.45-23.35 460.5-23.35L460.5-23.35ZM482.14-26.3L482.14-1.05Q482.14 2.3 481.27 4.42 480.39 6.55 478.77 7.88 477.14 9.2 474.39 10.5L474.39 10.5 472.99 7.25Q474.74 6.35 475.69 5.45 476.64 4.55 477.14 3.05 477.64 1.55 477.64-0.95L477.64-0.95 477.64-26.3 482.14-26.3ZM479.89-38.7Q481.19-38.7 482.02-37.85 482.84-37 482.84-35.75L482.84-35.75Q482.84-34.5 482.04-33.68 481.24-32.85 479.89-32.85L479.89-32.85Q478.59-32.85 477.77-33.68 476.94-34.5 476.94-35.75L476.94-35.75Q476.94-37 477.77-37.85 478.59-38.7 479.89-38.7L479.89-38.7ZM508.69-13.95Q508.69-12.9 508.59-11.6L508.59-11.6 493.29-11.6Q493.49-7 495.14-4.98 496.79-2.95 499.64-2.95L499.64-2.95Q501.44-2.95 502.87-3.5 504.29-4.05 505.84-5.3L505.84-5.3 507.84-2.65Q504.14 0.65 499.44 0.65L499.44 0.65Q494.29 0.65 491.47-2.93 488.64-6.5 488.64-12.95L488.64-12.95Q488.64-19.4 491.34-23.18 494.04-26.95 498.84-26.95L498.84-26.95Q503.59-26.95 506.14-23.58 508.69-20.2 508.69-13.95L508.69-13.95ZM504.34-14.75L504.34-15.3Q504.34-23.55 498.89-23.55L498.89-23.55Q496.39-23.55 494.94-21.48 493.49-19.4 493.29-14.75L493.29-14.75 504.34-14.75ZM524.09-26.95Q526.19-26.95 527.94-26.25 529.69-25.55 531.29-24.1L531.29-24.1 529.29-21.4Q528.09-22.35 526.89-22.83 525.69-23.3 524.29-23.3L524.29-23.3Q521.34-23.3 519.71-20.8 518.09-18.3 518.09-13L518.09-13Q518.09-3.1 524.29-3.1L524.29-3.1Q525.69-3.1 526.84-3.58 527.99-4.05 529.29-5L529.29-5 531.39-2.25Q528.19 0.65 524.14 0.65L524.14 0.65Q519.09 0.65 516.21-2.85 513.34-6.35 513.34-12.95L513.34-12.95Q513.34-17.25 514.66-20.4 515.99-23.55 518.41-25.25 520.84-26.95 524.09-26.95L524.09-26.95ZM547.14-4.05L548.79-1.15Q546.29 0.65 543.24 0.65L543.24 0.65Q540.04 0.65 538.31-1.2 536.59-3.05 536.59-6.4L536.59-6.4 536.59-22.9 532.84-22.9 532.84-26.3 536.59-26.3 536.59-32.35 541.09-32.9 541.09-26.3 546.89-26.3 546.39-22.9 541.09-22.9 541.09-6.45Q541.09-3.05 543.94-3.05L543.94-3.05Q544.79-3.05 545.51-3.3 546.24-3.55 547.14-4.05L547.14-4.05Z" opacity="1" transform="matrix(1,0,0,1,0,0)" fill="#2257bf" class="undefined-text-1" data-fill-palette-color="secondary" id="text-1"></path></svg></g></svg></g></svg></g></svg></g></svg></g></svg><rect width="395.52" height="84.0941133362983" fill="none" stroke="none" visibility="hidden"></rect></g></svg></g></svg>